{
	"asset":{
		"generator":"Khronos glTF Blender I/O v4.1.62",
		"version":"2.0"
	},
	"scene":0,
	"scenes":[
		{
			"name":"Scene",
			"nodes":[
				3
			]
		}
	],
	"nodes":[
		{
			"mesh":0,
			"name":"defaultMaterial"
		},
		{
			"children":[
				0
			],
			"name":"g"
		},
		{
			"children":[
				1
			],
			"name":"Collada visual scene group",
			"rotation":[
				0.70710688829422,
				0,
				0,
				0.7071066498756409
			]
		},
		{
			"children":[
				2
			],
			"name":"Sketchfab_model",
			"rotation":[
				-0.70710688829422,
				0,
				0,
				0.7071066498756409
			]
		}
	],
	"materials":[
		{
			"doubleSided":true,
			"name":"Fabric 126",
			"normalTexture":{
				"index":0,
				"texCoord":1
			},
			"pbrMetallicRoughness":{
				"baseColorTexture":{
					"index":1,
					"texCoord":1
				},
				"metallicFactor":0,
				"metallicRoughnessTexture":{
					"index":2,
					"texCoord":1
				}
			}
		}
	],
	"meshes":[
		{
			"name":"defaultMaterial",
			"primitives":[
				{
					"attributes":{
						"POSITION":0,
						"NORMAL":1,
						"TEXCOORD_0":2,
						"TEXCOORD_1":3
					},
					"indices":4,
					"material":0
				}
			]
		}
	],
	"textures":[
		{
			"sampler":0,
			"source":0
		},
		{
			"sampler":0,
			"source":1
		},
		{
			"sampler":0,
			"source":2
		}
	],
	"images":[
		{
			"mimeType":"image/jpeg",
			"name":"fabric_126_normal-2K",
			"uri":"fabric_126_normal-2K.jpg"
		},
		{
			"mimeType":"image/jpeg",
			"name":"fabric_126_albedo-2K",
			"uri":"fabric_126_albedo-2K.jpg"
		},
		{
			"mimeType":"image/png",
			"name":"fabric_126_roughness-2K",
			"uri":"fabric_126_roughness-2K.png"
		}
	],
	"accessors":[
		{
			"bufferView":0,
			"componentType":5126,
			"count":3262,
			"max":[
				1,
				0.32966798543930054,
				0.4193490147590637
			],
			"min":[
				-1,
				-0.32966798543930054,
				-0.4193490147590637
			],
			"type":"VEC3"
		},
		{
			"bufferView":1,
			"componentType":5126,
			"count":3262,
			"type":"VEC3"
		},
		{
			"bufferView":2,
			"componentType":5126,
			"count":3262,
			"type":"VEC2"
		},
		{
			"bufferView":3,
			"componentType":5126,
			"count":3262,
			"type":"VEC2"
		},
		{
			"bufferView":4,
			"componentType":5123,
			"count":11664,
			"type":"SCALAR"
		}
	],
	"bufferViews":[
		{
			"buffer":0,
			"byteLength":39144,
			"byteOffset":0,
			"target":34962
		},
		{
			"buffer":0,
			"byteLength":39144,
			"byteOffset":39144,
			"target":34962
		},
		{
			"buffer":0,
			"byteLength":26096,
			"byteOffset":78288,
			"target":34962
		},
		{
			"buffer":0,
			"byteLength":26096,
			"byteOffset":104384,
			"target":34962
		},
		{
			"buffer":0,
			"byteLength":23328,
			"byteOffset":130480,
			"target":34963
		}
	],
	"samplers":[
		{
			"magFilter":9729,
			"minFilter":9987
		}
	],
	"buffers":[
		{
			"byteLength":153808,
			"uri":"SofaBlue.bin"
		}
	]
}
