<svg width="40" height="40" viewBox="0 0 40 40" fill="none" xmlns="http://www.w3.org/2000/svg">
<path d="M34.1665 16.9833H29.3498C25.3998 16.9833 22.1832 13.7666 22.1832 9.81659V4.99992C22.1832 4.08325 21.4332 3.33325 20.5165 3.33325H13.4498C8.3165 3.33325 4.1665 6.66659 4.1665 12.6166V27.3833C4.1665 33.3333 8.3165 36.6666 13.4498 36.6666H26.5498C31.6832 36.6666 35.8332 33.3333 35.8332 27.3833V18.6499C35.8332 17.7333 35.0832 16.9833 34.1665 16.9833ZM19.2165 22.5499C18.9665 22.7999 18.6498 22.9166 18.3332 22.9166C18.0165 22.9166 17.6998 22.7999 17.4498 22.5499L16.2498 21.3499V28.3333C16.2498 29.0166 15.6832 29.5833 14.9998 29.5833C14.3165 29.5833 13.7498 29.0166 13.7498 28.3333V21.3499L12.5498 22.5499C12.0665 23.0333 11.2665 23.0333 10.7832 22.5499C10.2998 22.0666 10.2998 21.2666 10.7832 20.7833L14.1165 17.4499C14.2332 17.3499 14.3498 17.2666 14.4832 17.1999C14.5165 17.1833 14.5665 17.1666 14.5998 17.1499C14.6998 17.1166 14.7998 17.0999 14.9165 17.0833C14.9665 17.0833 14.9998 17.0833 15.0498 17.0833C15.1832 17.0833 15.3165 17.1166 15.4498 17.1666C15.4665 17.1666 15.4665 17.1666 15.4832 17.1666C15.6165 17.2166 15.7498 17.3166 15.8498 17.4166C15.8665 17.4333 15.8832 17.4333 15.8832 17.4499L19.2165 20.7833C19.6998 21.2666 19.6998 22.0666 19.2165 22.5499Z" fill="#9AA3AA"/>
<path d="M29.0501 14.6834C30.6335 14.7001 32.8335 14.7001 34.7168 14.7001C35.6668 14.7001 36.1668 13.5834 35.5001 12.9167C33.1001 10.5001 28.8001 6.15007 26.3335 3.6834C25.6501 3.00007 24.4668 3.46674 24.4668 4.41674V10.2334C24.4668 12.6667 26.5335 14.6834 29.0501 14.6834Z" fill="#9AA3AA"/>
</svg>
