<svg width="14" height="14" viewBox="0 0 14 14" fill="none" xmlns="http://www.w3.org/2000/svg">
<path d="M6.44582 8.72067L5.36666 9.79984C5.13916 10.0273 4.77749 10.0273 4.54416 9.80567C4.47999 9.7415 4.41582 9.68317 4.35166 9.619C3.75082 9.01234 3.20832 8.3765 2.72416 7.7115C2.24582 7.0465 1.86082 6.3815 1.58082 5.72234C1.30666 5.05734 1.16666 4.4215 1.16666 3.81484C1.16666 3.41817 1.23666 3.039 1.37666 2.689C1.51666 2.33317 1.73832 2.0065 2.04749 1.71484C2.42082 1.34734 2.82916 1.1665 3.26082 1.1665C3.42416 1.1665 3.58749 1.2015 3.73332 1.2715C3.88499 1.3415 4.01916 1.4465 4.12416 1.59817L5.47749 3.50567C5.58249 3.6515 5.65832 3.78567 5.71082 3.914C5.76332 4.0365 5.79249 4.159 5.79249 4.26984C5.79249 4.40984 5.75166 4.54984 5.66999 4.684C5.59416 4.81817 5.48332 4.95817 5.34332 5.09817L4.89999 5.559C4.83582 5.62317 4.80666 5.699 4.80666 5.79234C4.80666 5.839 4.81249 5.87984 4.82416 5.9265C4.84166 5.97317 4.85916 6.00817 4.87082 6.04317C4.97582 6.23567 5.15666 6.4865 5.41332 6.78984C5.67582 7.09317 5.95582 7.40234 6.25916 7.7115C6.31749 7.76984 6.38166 7.82817 6.43999 7.8865C6.67332 8.114 6.67916 8.48734 6.44582 8.72067Z" fill="#70707E"/>
<path d="M12.8158 10.6924C12.8158 10.8558 12.7867 11.0249 12.7283 11.1883C12.7108 11.2349 12.6933 11.2816 12.67 11.3283C12.5708 11.5383 12.4425 11.7366 12.2733 11.9233C11.9875 12.2383 11.6725 12.4658 11.3167 12.6116C11.3108 12.6116 11.305 12.6174 11.2992 12.6174C10.955 12.7574 10.5817 12.8333 10.1792 12.8333C9.58417 12.8333 8.94834 12.6933 8.27751 12.4074C7.60667 12.1216 6.93584 11.7366 6.27084 11.2524C6.04334 11.0833 5.81584 10.9141 5.60001 10.7333L7.50751 8.82577C7.67084 8.94827 7.81667 9.04161 7.93917 9.10577C7.96834 9.11744 8.00334 9.13494 8.04417 9.15244C8.09084 9.16994 8.13751 9.17577 8.19001 9.17577C8.28917 9.17577 8.36501 9.14078 8.42917 9.07661L8.87251 8.63911C9.01834 8.49328 9.15834 8.38244 9.29251 8.31244C9.42667 8.23077 9.56084 8.18994 9.70667 8.18994C9.81751 8.18994 9.93417 8.21327 10.0625 8.26577C10.1908 8.31827 10.325 8.39411 10.4708 8.49328L12.4017 9.86411C12.5533 9.96911 12.6583 10.0916 12.7225 10.2374C12.7808 10.3833 12.8158 10.5291 12.8158 10.6924Z" fill="#70707E"/>
</svg>
