<svg width="20" height="20" viewBox="0 0 20 20" fill="none" xmlns="http://www.w3.org/2000/svg">
<path d="M11.2241 17.5427L11.2247 17.5424L15.5182 15.0592C16.4168 14.4541 16.7642 14.1781 16.9383 13.8751C17.1047 13.5856 17.1417 13.2191 17.1417 12.2585V7.73353C17.1417 6.77263 17.1047 6.40763 16.9417 6.12188C16.7717 5.82374 16.4333 5.55463 15.5513 4.95771L11.2172 2.45851C11.2171 2.45848 11.2171 2.45845 11.217 2.45843C10.8963 2.27381 10.4577 2.16895 9.99583 2.16895C9.5341 2.16895 9.09564 2.27374 8.77494 2.45824C8.77479 2.45833 8.77463 2.45842 8.77448 2.45851L4.48174 4.94115C3.58218 5.54695 3.23511 5.82075 3.06112 6.12208C2.89546 6.409 2.85833 6.77265 2.85833 7.73353V12.2669C2.85833 13.2278 2.89529 13.5928 3.05827 13.8785C3.22832 14.1766 3.5667 14.4458 4.44864 15.0427L8.78309 17.542L8.78311 17.542L8.78799 17.5449C9.10024 17.7297 9.53963 17.8335 10 17.8335C10.4592 17.8335 10.9009 17.7302 11.2241 17.5427ZM13.2083 10.0002C13.2083 11.768 11.7678 13.2085 10 13.2085C8.23219 13.2085 6.79166 11.768 6.79166 10.0002C6.79166 8.23239 8.23219 6.79186 10 6.79186C11.7678 6.79186 13.2083 8.23239 13.2083 10.0002Z" fill="#9AA3AA" stroke="#9AA3AA"/>
</svg>
