<svg width="20" height="20" viewBox="0 0 20 20" fill="none" xmlns="http://www.w3.org/2000/svg">
<path d="M4.57854 10.3992L4.57857 10.3992L4.5815 10.3942C4.71167 10.1718 4.8216 9.87634 4.89873 9.59617C4.97574 9.31643 5.03333 9.00381 5.03333 8.74159V7.19159C5.03333 4.44421 7.26648 2.2162 10.0173 2.20825C12.7571 2.20862 14.9917 4.44246 14.9917 7.19159V8.74992C14.9917 9.01235 15.0493 9.3253 15.1278 9.60632C15.2061 9.88656 15.3188 10.184 15.4556 10.4088C15.4558 10.4093 15.4561 10.4097 15.4564 10.4102L16.3952 11.972C16.3954 11.9724 16.3956 11.9727 16.3958 11.9731C16.661 12.4202 16.7106 12.9446 16.532 13.4239C16.351 13.9013 15.9719 14.2742 15.4743 14.4426C14.5981 14.7346 13.6998 14.961 12.7957 15.1063L12.7956 15.1062L12.7856 15.108C12.69 15.1254 12.6204 15.1377 12.5547 15.1436L12.5362 15.1453L12.5178 15.1484C12.3835 15.1708 12.247 15.1861 12.0948 15.203L12.0948 15.2028L12.0824 15.2045C11.9133 15.2276 11.7341 15.2433 11.54 15.2601L11.54 15.2601L11.5352 15.2606C11.0348 15.309 10.5259 15.3333 10.0167 15.3333C9.49886 15.3333 8.98134 15.309 8.4724 15.2605L8.47241 15.2604L8.46193 15.2596C8.25034 15.2439 8.04672 15.2205 7.84269 15.1891L7.84271 15.189L7.83274 15.1876C7.71042 15.1713 7.59086 15.1554 7.4794 15.1395C7.42611 15.1301 7.3748 15.1231 7.33387 15.1175L7.33006 15.117C7.28245 15.1105 7.24757 15.1057 7.21444 15.0997L7.21444 15.0996L7.20935 15.0988C6.30561 14.9441 5.42233 14.7331 4.54978 14.4422L4.54621 14.4411C4.01683 14.269 3.62962 13.8917 3.46062 13.4348L3.45983 13.4327C3.29522 12.9937 3.34634 12.4602 3.63806 11.9639L4.57854 10.3992ZM9.99166 9.46659C10.6178 9.46659 11.125 8.95939 11.125 8.33325V5.74992C11.125 5.12378 10.6178 4.61659 9.99166 4.61659C9.36552 4.61659 8.85833 5.12378 8.85833 5.74992V8.33325C8.85833 8.95939 9.36552 9.46659 9.99166 9.46659Z" fill="white" stroke="white"/>
<path d="M10 17.8334C9.49038 17.8334 8.98879 17.6328 8.62989 17.2816C9.08533 17.3192 9.55002 17.3417 10.0167 17.3417C10.4753 17.3417 10.932 17.3193 11.3794 17.2816C11.0189 17.6239 10.5328 17.8334 10 17.8334Z" fill="white" stroke="white"/>
</svg>
