<svg width="86" height="107" viewBox="0 0 86 107" fill="none" xmlns="http://www.w3.org/2000/svg">
<rect x="11.1237" y="49.2234" width="56.7863" height="18.6892" rx="9.34459" transform="rotate(-60 11.1237 49.2234)" fill="#9E5741"/>
<rect x="30.0716" y="74.16" width="52.5453" height="18.6892" rx="9.34459" transform="rotate(-60 30.0716 74.16)" fill="#9E5741"/>
<circle cx="9.47984" cy="70.7162" r="9.34459" fill="#9E5741"/>
<circle cx="76.1139" cy="70.7162" r="9.34459" fill="#9E5741"/>
<path d="M8.91791 104.487H6.38122V93.0961H12.6192V95.0744H8.91791V98.0099H12.364V99.9882H8.91791V104.487ZM23.4974 100.467C23.4974 101.254 23.3272 101.967 22.9869 102.605C22.6571 103.232 22.1572 103.732 21.4872 104.104C20.8171 104.466 19.9769 104.647 18.9664 104.647C17.5199 104.647 16.4138 104.264 15.648 103.498C14.8929 102.722 14.5153 101.701 14.5153 100.435V93.0961H17.0998V100.068C17.0998 101.004 17.2594 101.663 17.5784 102.046C17.9082 102.429 18.3868 102.621 19.0143 102.621C19.461 102.621 19.8226 102.53 20.0992 102.349C20.3757 102.169 20.5778 101.887 20.7054 101.504C20.8437 101.121 20.9128 100.637 20.9128 100.052V93.0961H23.4974V100.467ZM29.3056 93.0961C30.2735 93.0961 31.0765 93.2237 31.7147 93.479C32.3529 93.7236 32.8262 94.1012 33.1346 94.6117C33.4537 95.1116 33.6132 95.7444 33.6132 96.5102C33.6132 97.0314 33.5281 97.4887 33.358 97.8823C33.1984 98.2652 32.9751 98.5949 32.6879 98.8714C32.4007 99.1373 32.0763 99.3554 31.7147 99.5255L34.8417 104.487H31.954L29.545 100.116H28.5718V104.487H25.9872V93.0961H29.3056ZM29.194 95.0744H28.5718V98.1535H29.2099C29.6035 98.1535 29.9332 98.095 30.1991 97.978C30.465 97.861 30.6671 97.6855 30.8053 97.4515C30.9436 97.2069 31.0127 96.9144 31.0127 96.5741C31.0127 96.2124 30.9489 95.9253 30.8213 95.7125C30.6936 95.4892 30.4969 95.3296 30.231 95.2339C29.9651 95.1276 29.6194 95.0744 29.194 95.0744ZM40.4743 104.487H37.8898V95.1063H35.1297V93.0961H43.2344V95.1063H40.4743V104.487ZM50.3742 104.487L49.7201 101.775H46.0347L45.3646 104.487H42.5567L46.1942 93.0482H49.5127L53.1661 104.487H50.3742ZM48.4118 97.1005C48.348 96.8772 48.2842 96.6432 48.2204 96.3986C48.1566 96.1539 48.0927 95.8987 48.0289 95.6328C47.9757 95.3669 47.9226 95.0956 47.8694 94.8191C47.8268 95.0956 47.7737 95.3722 47.7098 95.6487C47.646 95.9146 47.5822 96.1699 47.5184 96.4145C47.4652 96.6591 47.4067 96.8878 47.3429 97.1005L46.609 99.7489H49.1617L48.4118 97.1005ZM58.0028 93.0961C58.992 93.0961 59.8056 93.1918 60.4438 93.3832C61.0819 93.5641 61.5552 93.8672 61.8637 94.2926C62.1721 94.7074 62.3263 95.2711 62.3263 95.9838C62.3263 96.4092 62.2519 96.7974 62.103 97.1484C61.9541 97.4994 61.752 97.7866 61.4967 98.0099C61.2521 98.2333 60.9756 98.3769 60.6671 98.4407V98.5204C60.9862 98.5949 61.2893 98.7278 61.5765 98.9193C61.8743 99.1107 62.1136 99.3873 62.2944 99.7489C62.4753 100.111 62.5657 100.589 62.5657 101.185C62.5657 101.876 62.4008 102.472 62.0711 102.972C61.752 103.461 61.2947 103.838 60.699 104.104C60.1034 104.36 59.3908 104.487 58.5612 104.487H54.477V93.0961H58.0028ZM58.1464 97.6111C58.7207 97.6111 59.1196 97.4994 59.3429 97.276C59.5663 97.0527 59.678 96.7283 59.678 96.3028C59.678 95.8668 59.545 95.553 59.2791 95.3615C59.0239 95.1701 58.6197 95.0744 58.0666 95.0744H57.0615V97.6111H58.1464ZM57.0615 99.5255V102.493H58.3059C58.9016 102.493 59.3164 102.355 59.5503 102.078C59.7843 101.791 59.9013 101.413 59.9013 100.945C59.9013 100.658 59.8482 100.408 59.7418 100.196C59.6461 99.9829 59.4759 99.818 59.2313 99.701C58.9973 99.584 58.6676 99.5255 58.2421 99.5255H57.0615ZM64.6227 104.487V93.0961H67.2073V102.493H71.4351V104.487H64.6227ZM79.5268 104.487H73.2728V93.0961H79.5268V95.0744H75.8573V97.5792H79.2715V99.5575H75.8573V102.493H79.5268V104.487Z" fill="#9E5741"/>
</svg>
