<svg width="20" height="20" viewBox="0 0 20 20" fill="none" xmlns="http://www.w3.org/2000/svg">
<path d="M16.2583 15.1252L11.3083 17.9835C10.5 18.4502 9.49999 18.4502 8.68332 17.9835L3.74165 15.1252C2.93332 14.6585 2.43332 13.7918 2.43332 12.8502V7.15016C2.43332 6.21683 2.93332 5.35016 3.74165 4.87516L8.69165 2.01683C9.49999 1.55016 10.5 1.55016 11.3167 2.01683L16.2667 4.87516C17.075 5.34183 17.575 6.2085 17.575 7.15016V12.8502C17.5667 13.7918 17.0667 14.6502 16.2583 15.1252ZM9.37499 13.5418C9.37499 13.8835 9.65832 14.1668 9.99999 14.1668C10.3417 14.1668 10.625 13.8835 10.625 13.5418V9.16683C10.625 8.82516 10.3417 8.54183 9.99999 8.54183C9.65832 8.54183 9.37499 8.82516 9.37499 9.16683V13.5418ZM10.7667 6.14183C10.725 6.04183 10.6667 5.95016 10.5917 5.86683C10.4333 5.7085 10.225 5.62516 9.99999 5.62516C9.89165 5.62516 9.78332 5.65016 9.68332 5.69183C9.57499 5.7335 9.49165 5.79183 9.40832 5.86683C9.33332 5.95016 9.27499 6.04183 9.22499 6.14183C9.18332 6.24183 9.16665 6.35016 9.16665 6.4585C9.16665 6.67516 9.24999 6.89183 9.40832 7.05016C9.49165 7.12516 9.57499 7.1835 9.68332 7.22516C9.99165 7.3585 10.3583 7.2835 10.5917 7.05016C10.6667 6.96683 10.725 6.8835 10.7667 6.77516C10.8083 6.67516 10.8333 6.56683 10.8333 6.4585C10.8333 6.35016 10.8083 6.24183 10.7667 6.14183Z" fill="#9AA3AA"/>
</svg>
