<svg width="20" height="20" viewBox="0 0 20 20" fill="none" xmlns="http://www.w3.org/2000/svg">
<path d="M15.759 14.0993L15.759 14.0993L15.7613 14.0977C15.9506 13.9579 16.1513 13.7062 16.3056 13.3966C16.4598 13.0874 16.5417 12.7726 16.5417 12.5332V5.7832C16.5417 5.43378 16.4058 5.03751 16.162 4.68578C15.9183 4.33431 15.5943 4.06706 15.2657 3.94288C15.2655 3.94281 15.2653 3.94274 15.2651 3.94267L10.6855 2.22737C10.6851 2.22724 10.6847 2.2271 10.6843 2.22696C10.5189 2.16625 10.2697 2.12695 9.99582 2.12695C9.72198 2.12695 9.47273 2.16625 9.30731 2.22696C9.30693 2.2271 9.30655 2.22724 9.30618 2.22737L4.72799 3.94211C4.72759 3.94227 4.72719 3.94242 4.72679 3.94257C4.40246 4.06648 4.0806 4.33329 3.83894 4.68439C3.59699 5.03593 3.46356 5.43103 3.46664 5.77878L3.46666 5.77878V5.7832V12.5332C3.46666 12.7722 3.54829 13.0847 3.70241 13.3929C3.85626 13.7006 4.05756 13.9545 4.25024 14.1001C4.25048 14.1002 4.25073 14.1004 4.25097 14.1006L8.83263 17.5243L8.83398 17.5254C9.13648 17.753 9.55888 17.8811 10.0042 17.8811C10.4494 17.8811 10.8718 17.753 11.1743 17.5254L11.1757 17.5243L15.759 14.0993ZM8.87499 12.9165V11.0626C8.01814 10.6477 7.41666 9.77829 7.41666 8.74987C7.41666 7.32373 8.57385 6.16654 9.99999 6.16654C11.4261 6.16654 12.5833 7.32373 12.5833 8.74987C12.5833 9.77 11.9826 10.6457 11.125 11.0623V12.9165C11.125 13.5343 10.6178 14.0415 9.99999 14.0415C9.38218 14.0415 8.87499 13.5343 8.87499 12.9165Z" fill="#9AA3AA" stroke="#9AA3AA"/>
</svg>
