<svg width="24" height="24" viewBox="0 0 24 24" fill="none" xmlns="http://www.w3.org/2000/svg">
<path d="M20 14H4V8C4 6.93913 4.42143 5.92172 5.17157 5.17157C5.92172 4.42143 6.93913 4 8 4H16C17.0609 4 18.0783 4.42143 18.8284 5.17157C19.5786 5.92172 20 6.93913 20 8V14ZM20 19V16C20 15.7348 19.8946 15.4804 19.7071 15.2929C19.5196 15.1054 19.2652 15 19 15C18.7348 15 18.4804 15.1054 18.2929 15.2929C18.1054 15.4804 18 15.7348 18 16V19C18 19.2652 18.1054 19.5196 18.2929 19.7071C18.4804 19.8946 18.7348 20 19 20C19.2652 20 19.5196 19.8946 19.7071 19.7071C19.8946 19.5196 20 19.2652 20 19ZM6 19V16C6 15.7348 5.89464 15.4804 5.70711 15.2929C5.51957 15.1054 5.26522 15 5 15C4.73478 15 4.48043 15.1054 4.29289 15.2929C4.10536 15.4804 4 15.7348 4 16V19C4 19.2652 4.10536 19.5196 4.29289 19.7071C4.48043 19.8946 4.73478 20 5 20C5.26522 20 5.51957 19.8946 5.70711 19.7071C5.89464 19.5196 6 19.2652 6 19Z" fill="white"/>
<path d="M2.5 11.0001H2.50005L2.49995 10.9928C2.49673 10.7724 2.54214 10.554 2.63292 10.3531C2.72371 10.1523 2.85764 9.9739 3.02521 9.83069C3.19277 9.68747 3.38983 9.58295 3.60238 9.52455C3.81271 9.46676 4.03309 9.45554 4.24815 9.49165C4.61121 9.56639 4.9362 9.76721 5.16548 10.0586C5.3962 10.3519 5.51492 10.7178 5.50038 11.0906L5.5 11.1003V11.1101V13.0001V13.5001H6H18H18.5V13.0001V11.1101V11.1003L18.4996 11.0906C18.4851 10.7178 18.6038 10.3519 18.8345 10.0586C19.0638 9.76721 19.3888 9.56639 19.7519 9.49165C19.9669 9.45554 20.1873 9.46676 20.3976 9.52455C20.6102 9.58295 20.8072 9.68747 20.9748 9.83069C21.1424 9.9739 21.2763 10.1523 21.3671 10.3531C21.4579 10.554 21.5033 10.7724 21.5001 10.9928L22 11.0001H21.5V15.0001C21.5 15.3979 21.342 15.7795 21.0607 16.0608C20.7794 16.3421 20.3978 16.5001 20 16.5001H4C3.60217 16.5001 3.22064 16.3421 2.93934 16.0608C2.65803 15.7795 2.5 15.3979 2.5 15.0001V11.0001Z" fill="white" stroke="#9E5741"/>
</svg>
