<svg width="22" height="22" viewBox="0 0 22 22" fill="none" xmlns="http://www.w3.org/2000/svg">
<path d="M14.6667 1.83325H7.33333C3.66666 1.83325 1.83333 3.66659 1.83333 7.33325V19.2499C1.83333 19.7541 2.24583 20.1666 2.74999 20.1666H14.6667C18.3333 20.1666 20.1667 18.3333 20.1667 14.6666V7.33325C20.1667 3.66659 18.3333 1.83325 14.6667 1.83325ZM10.1842 15.2716C9.95499 15.5008 9.53333 15.7116 9.22166 15.7574L7.31499 16.0233C7.24166 16.0324 7.16833 16.0416 7.10416 16.0416C6.78333 16.0416 6.48999 15.9316 6.27916 15.7208C6.02249 15.4641 5.91249 15.0883 5.97666 14.6849L6.24249 12.7783C6.28833 12.4666 6.49916 12.0358 6.72833 11.8158L10.1842 8.35992C10.2392 8.52492 10.3125 8.68992 10.395 8.87325C10.4775 9.03825 10.56 9.20325 10.6517 9.35908C10.725 9.48742 10.8075 9.61575 10.8808 9.70742C10.9725 9.84492 11.0642 9.96408 11.1283 10.0283C11.165 10.0833 11.2017 10.1199 11.2108 10.1383C11.4125 10.3674 11.6233 10.5874 11.825 10.7524C11.88 10.8074 11.9167 10.8349 11.9258 10.8441C12.045 10.9358 12.155 11.0366 12.265 11.1008C12.3842 11.1924 12.5125 11.2749 12.6408 11.3483C12.7967 11.4399 12.9617 11.5316 13.1358 11.6141C13.31 11.6966 13.475 11.7608 13.64 11.8158L10.1842 15.2716ZM15.1708 10.2941L14.4558 11.0091C14.41 11.0549 14.3458 11.0824 14.2817 11.0824C14.2633 11.0824 14.2267 11.0824 14.2083 11.0733C12.6317 10.6241 11.3758 9.36825 10.9267 7.79159C10.8992 7.70909 10.9267 7.61742 10.9908 7.55325L11.715 6.82908C12.8975 5.64658 14.0158 5.67408 15.1708 6.82908C15.7575 7.41575 16.0508 7.98409 16.0417 8.57075C16.0417 9.14825 15.7575 9.70742 15.1708 10.2941Z" fill="white"/>
</svg>
