<svg width="20" height="20" viewBox="0 0 20 20" fill="none" xmlns="http://www.w3.org/2000/svg">
<path d="M9.14167 13.1C9.14167 13.5741 9.52596 13.9584 10 13.9584C10.474 13.9584 10.8583 13.5741 10.8583 13.1C10.8583 12.626 10.474 12.2417 10 12.2417C9.52596 12.2417 9.14167 12.626 9.14167 13.1Z" fill="#9AA3AA" stroke="#9AA3AA"/>
<path d="M4.76668 7.9415V6.89984C4.76668 4.64984 5.30834 1.6665 10 1.6665C14.6917 1.6665 15.2333 4.64984 15.2333 6.89984V7.9415C17.5667 8.23317 18.3333 9.4165 18.3333 12.3248V13.8748C18.3333 17.2915 17.2917 18.3332 13.875 18.3332H6.12501C2.70834 18.3332 1.66668 17.2915 1.66668 13.8748V12.3248C1.66668 9.4165 2.43334 8.23317 4.76668 7.9415ZM10 15.6165C11.3917 15.6165 12.5167 14.4832 12.5167 13.0998C12.5167 11.7082 11.3833 10.5832 10 10.5832C8.61668 10.5832 7.48334 11.7165 7.48334 13.0998C7.48334 14.4915 8.60834 15.6165 10 15.6165ZM13.875 7.8665C13.9417 7.8665 14 7.8665 14.0667 7.8665V6.89984C14.0667 4.45817 13.375 2.83317 10 2.83317C6.62501 2.83317 5.93334 4.45817 5.93334 6.89984V7.87484C6.00001 7.87484 6.05834 7.87484 6.12501 7.87484H13.875V7.8665Z" fill="#9AA3AA"/>
</svg>
