<svg width="20" height="20" viewBox="0 0 20 20" fill="none" xmlns="http://www.w3.org/2000/svg">
<path d="M2.17501 6.5068V6.50817V13.4915C2.17501 14.9087 2.59552 15.9799 3.3119 16.6963C4.02827 17.4127 5.09945 17.8332 6.51668 17.8332H13.4917C14.9089 17.8332 15.9799 17.4127 16.6962 16.6955C17.4126 15.9782 17.8333 14.9049 17.8333 13.4832V6.50817C17.8333 5.09094 17.4128 4.01977 16.6965 3.30339C15.9801 2.58702 14.9089 2.1665 13.4917 2.1665H6.50834C5.09102 2.1665 4.02004 2.58706 3.30483 3.30317C2.58972 4.01918 2.17112 5.08988 2.17501 6.5068ZM11.2119 6.81295L14.9258 10.5269C15.1007 10.6969 15.2486 10.9189 15.3587 11.1367C15.4698 11.3563 15.56 11.6064 15.5947 11.8441L15.595 11.8461L15.8864 13.8941C15.9721 14.4657 15.8245 15.0324 15.4202 15.4367C15.0877 15.7692 14.6368 15.9248 14.1833 15.9248C14.0802 15.9248 13.9814 15.9138 13.9116 15.9061L13.9031 15.9051L13.8955 15.9043L13.8879 15.9032L11.8379 15.6115L11.8379 15.6115L11.8342 15.611C11.5983 15.5756 11.3479 15.482 11.1307 15.3716C10.9134 15.2611 10.6909 15.1143 10.5222 14.9458C10.522 14.9456 10.5217 14.9453 10.5215 14.9451L6.78931 11.2379L6.21317 10.6656L6.43821 10.5906C6.25956 10.582 6.07838 10.5103 5.93812 10.3701L5.93622 10.3681L5.17146 9.59506C5.17115 9.59475 5.17085 9.59445 5.17054 9.59414C4.48891 8.91223 4.0859 8.19541 4.07506 7.41511L4.07501 7.41512V7.40817C4.07501 6.59387 4.4769 5.86585 5.16312 5.17962C5.83422 4.50852 6.56549 4.0966 7.3631 4.09255C8.16206 4.0885 8.90149 4.49421 9.5869 5.17962L10.3534 5.94617C10.5122 6.09351 10.5828 6.29162 10.5842 6.48174L10.666 6.26701L11.2119 6.81295Z" fill="#9AA3AA" stroke="#9AA3AA"/>
</svg>
