<svg width="22" height="22" viewBox="0 0 22 22" fill="none" xmlns="http://www.w3.org/2000/svg">
<path d="M6.63667 1.83325H4.895C2.8875 1.83325 1.83334 2.88742 1.83334 4.88575V6.62742C1.83334 8.62575 2.8875 9.67992 4.88584 9.67992H6.6275C8.62584 9.67992 9.68 8.62575 9.68 6.62742V4.88575C9.68917 2.88742 8.635 1.83325 6.63667 1.83325Z" fill="white"/>
<path d="M17.1142 1.83325H15.3725C13.3742 1.83325 12.32 2.88742 12.32 4.88575V6.62742C12.32 8.62575 13.3742 9.67992 15.3725 9.67992H17.1142C19.1125 9.67992 20.1667 8.62575 20.1667 6.62742V4.88575C20.1667 2.88742 19.1125 1.83325 17.1142 1.83325Z" fill="white"/>
<path d="M17.1142 12.3108H15.3725C13.3742 12.3108 12.32 13.365 12.32 15.3633V17.105C12.32 19.1033 13.3742 20.1575 15.3725 20.1575H17.1142C19.1125 20.1575 20.1667 19.1033 20.1667 17.105V15.3633C20.1667 13.365 19.1125 12.3108 17.1142 12.3108Z" fill="white"/>
<path d="M6.63667 12.3108H4.895C2.8875 12.3108 1.83334 13.365 1.83334 15.3633V17.105C1.83334 19.1125 2.8875 20.1666 4.88584 20.1666H6.6275C8.62584 20.1666 9.68 19.1125 9.68 17.1141V15.3725C9.68917 13.365 8.635 12.3108 6.63667 12.3108Z" fill="white"/>
</svg>
