<svg width="20" height="20" viewBox="0 0 20 20" fill="none" xmlns="http://www.w3.org/2000/svg">
<path d="M12.9167 10.958H11.1084C9.62508 10.958 8.41675 9.75801 8.41675 8.26634V6.45801C8.41675 6.11634 8.14175 5.83301 7.79175 5.83301H5.15008C3.22508 5.83301 1.66675 7.08301 1.66675 9.31634V14.8497C1.66675 17.083 3.22508 18.333 5.15008 18.333H10.0584C11.9834 18.333 13.5417 17.083 13.5417 14.8497V11.583C13.5417 11.233 13.2584 10.958 12.9167 10.958Z" fill="#9E5741"/>
<path d="M14.85 1.66699H13.2083H12.3H9.94167C8.05834 1.66699 6.53334 2.86699 6.46667 5.00866C6.51667 5.00866 6.55834 5.00033 6.60834 5.00033H8.96667H9.87501H11.5167C13.4417 5.00033 15 6.25033 15 8.48366V10.1253V12.3837V14.0253C15 14.0753 14.9917 14.117 14.9917 14.1587C16.85 14.1003 18.3333 12.867 18.3333 10.692V9.05033V6.79199V5.15033C18.3333 2.91699 16.775 1.66699 14.85 1.66699Z" fill="#9E5741"/>
<path d="M9.98332 5.95861C9.72499 5.70028 9.28333 5.87528 9.28333 6.23361V8.41695C9.28333 9.33361 10.0583 10.0836 11.0083 10.0836C11.6 10.0919 12.425 10.0919 13.1333 10.0919C13.4917 10.0919 13.675 9.67528 13.425 9.42528C12.5167 8.51695 10.9 6.89195 9.98332 5.95861Z" fill="#9E5741"/>
</svg>
